<svg width="51" height="41" viewBox="0 0 51 41" fill="none" xmlns="http://www.w3.org/2000/svg">
<path d="M18.7961 15.2686C18.7961 -11.3895 17.3617 7.48135 2.16987 7.48135V15.2686C2.16987 21.4983 9.38543 14.2016 12.9932 9.77451V28.1676C12.9932 32.2284 -8.45786 39.9678 6.01672 39.9678C20.4913 39.9678 18.7961 41.9266 18.7961 15.2686Z" fill="#FFEFEC" stroke="black"/>
<path d="M19.5816 18.3187C24.4997 17.4355 33.3609 16.3014 33.9405 21.9906C36.9045 18.5046 42.7008 17.575 47.4432 17.575C49.7024 17.575 50.8578 21.128 51 26.0808C51 36.6782 50.0516 38.4179 46.9821 38.4909C41.8485 38.6131 33.9873 33.2815 33.6166 31.8295C31.6223 34.1079 28.3641 39.0694 24.5216 38.4909C19.5816 37.7473 19.7792 34.943 18.8571 33.2387V18.3187H19.5816Z" fill="black"/>
</svg>
